# xmcd CD database file
#
# Track frame offsets:
#	150
#	27879
#	45045
#	66569
#	85184
#	106361
#	139485
#	157878
#	190587
#	212166
#
# Disc length: 3192 seconds
#
# Revision: 0
# Processed by: cddbd v1.5.1PL0 Copyright (c) Steve Scherf et al.
# Submitted via: CDex 1.51
#
DISCID=810c760a
DTITLE=Dario Galante - AWÉ
DYEAR=2005
DGENRE=Jazz
TTITLE0=Te Voglio Bene Assaie
TTITLE1=Levada Esperta
TTITLE2=Amalfi
TTITLE3=Abdullah
TTITLE4=EsperanZa
TTITLE5=Awé
TTITLE6=Heyokah
TTITLE7=I-10
TTITLE8=Sbariann' Accussi
TTITLE9=Te Voglio Bene Assaie (take 2)
EXTD=YEAR: 2005
EXTT0=
EXTT1=
EXTT2=
EXTT3=
EXTT4=
EXTT5=
EXTT6=
EXTT7=
EXTT8=
EXTT9=
PLAYORDER=
